<?xml version="1.0" encoding="utf-8"?>
<!-- Generator: Adobe Illustrator 23.0.0, SVG Export Plug-In . SVG Version: 6.00 Build 0)  -->
<svg version="1.1" id="Layer_2" xmlns="http://www.w3.org/2000/svg" xmlns:xlink="http://www.w3.org/1999/xlink" x="0px" y="0px"
	 viewBox="0 0 330 283.5" style="enable-background:new 0 0 330 283.5;" xml:space="preserve">
<style type="text/css">
	.st0{opacity:0.5;fill:none;stroke:#4785C5;stroke-width:0.25;stroke-miterlimit:10;enable-background:new    ;}
	.st1{fill:#4785C5;}
	.st2{opacity:0.2;fill:#4785C5;enable-background:new    ;}
	.st3{fill:none;stroke:#4785C5;stroke-width:0.5;stroke-miterlimit:10;}
	.st4{font-family:'Arial-BoldMT';}
	.st5{font-size:10.773px;}
	.st6{font-family:'ArialMT';}
	.st7{font-size:7.5964px;}
	.st8{fill:none;}
</style>
<g>
	<circle class="st0" cx="164.1" cy="138.1" r="54.1"/>
	<circle class="st0" cx="164.1" cy="138.1" r="73.6"/>
	<circle class="st0" cx="164.1" cy="138.1" r="92.1"/>
	<g>
		<circle class="st1" cx="110.9" cy="63.5" r="7.8"/>
		<circle class="st2" cx="110.9" cy="63.5" r="9"/>
	</g>
	<g>
		<circle class="st1" cx="195" cy="51.6" r="9.1"/>
		<circle class="st2" cx="195" cy="51.6" r="10.5"/>
	</g>
	<g>
		<circle class="st1" cx="244.1" cy="104.9" r="10.5"/>
		<circle class="st2" cx="244.1" cy="104.9" r="12.3"/>
	</g>
	<g>
		<circle class="st1" cx="254.6" cy="201.2" r="15.5"/>
		
			<ellipse transform="matrix(0.3162 -0.9487 0.9487 0.3162 -16.8042 379.1458)" class="st2" cx="254.6" cy="201.2" rx="18" ry="18"/>
	</g>
	<g>
		<circle class="st1" cx="163.6" cy="247.2" r="3"/>
		<circle class="st2" cx="163.6" cy="247.2" r="3.5"/>
	</g>
	<line class="st3" x1="110.2" y1="62.4" x2="132.7" y2="94.1"/>
	<line class="st3" x1="195.2" y1="51.4" x2="182.5" y2="87.2"/>
	<line class="st3" x1="244.1" y1="105.9" x2="214.6" y2="118.5"/>
	<line class="st3" x1="254.8" y1="201.2" x2="208.2" y2="170"/>
	<line class="st3" x1="163.6" y1="247.3" x2="164.1" y2="192.1"/>
	<g>
		<circle class="st1" cx="99.3" cy="203.1" r="5.1"/>
		<circle class="st2" cx="99.3" cy="203.1" r="6.1"/>
	</g>
	<g>
		<circle class="st1" cx="72.6" cy="129" r="5.7"/>
		<circle class="st2" cx="72.6" cy="129" r="6.7"/>
	</g>
	<line class="st3" x1="99.3" y1="203.7" x2="125.9" y2="176.2"/>
	<text transform="matrix(1 0 0 1 97.2988 38.7614)" class="st1 st4 st5">130$</text>
	<text transform="matrix(1 0 0 1 40.2402 46.153)" class="st1 st6 st7">for each affiliation in the </text>
	<text transform="matrix(1 0 0 1 84.0132 53.8752)" class="st1 st6 st7">generation</text>
	<text transform="matrix(1 0 0 1 44.1812 133.7941)" class="st1 st4 st5">15$</text>
	<text transform="matrix(1 0 0 1 44.1807 142.0549)" class="st1 st6 st7">Fees per level </text>
	<text transform="matrix(1 0 0 1 44.1807 149.7775)" class="st1 st6 st7">crossing</text>
	<text transform="matrix(1 0 0 1 208.2275 41.2814)" class="st1 st4 st5">245$</text>
	<text transform="matrix(1 0 0 1 208.2275 49.9377)" class="st1 st6 st7">Net benefice ( level1 )</text>
	<text transform="matrix(1 0 0 1 257.7109 106.8639)" class="st1 st4 st5">505$</text>
	<text transform="matrix(1 0 0 1 257.7109 116.7853)" class="st1 st6 st7">Net benefice</text>
	<text transform="matrix(1 0 0 1 257.7109 125.9015)" class="st1 st6 st7">( level2 )</text>
	<text transform="matrix(1 0 0 1 272.6289 199.8332)" class="st1 st4 st5">1025$</text>
	<text transform="matrix(1 0 0 1 272.6289 209.756)" class="st1 st6 st7">Net benefice</text>
	<text transform="matrix(1 0 0 1 272.6289 217.4797)" class="st1 st6 st7">( level3 )</text>
	<rect x="170.9" y="245" class="st8" width="37.3" height="7"/>
	<text transform="matrix(1 0 0 1 170.8438 248.8644)" class="st1 st6 st7">Binary Matrix</text>
	<text transform="matrix(1 0 0 1 62.4238 208.3361)" class="st1 st6 st7">3 Levels</text>
	<line class="st3" x1="72.4" y1="130" x2="110.1" y2="133.3"/>
</g>
</svg>
