<svg id="Calque_1" data-name="Calque 1" xmlns="http://www.w3.org/2000/svg" viewBox="0 0 293.2 289.1"><defs><style>.cls-1{fill:#1d1d1b;}.cls-2{fill:#ca1241;}.cls-3{fill:#0c88ca;}.cls-4{fill:#24a639;}</style></defs><title>wcs</title><path class="cls-1" d="M109.7,375.9h2.7l5.2,19.3,7.5-19.3h.5l7.3,19.3,5.4-19.3h2.6l-7.4,26.5H133l-7.7-20.2-7.8,20.2H117Z" transform="translate(-109.7 -113.3)"/><path class="cls-1" d="M144.2,377.3a2,2,0,0,1,.6-1.4,1.9,1.9,0,0,1,2.8,0,2,2,0,0,1,.6,1.4,2,2,0,0,1-.6,1.5,1.8,1.8,0,0,1-1.4.6,1.6,1.6,0,0,1-1.4-.7A1.8,1.8,0,0,1,144.2,377.3Zm.8,5.4h2.4v19.1H145Z" transform="translate(-109.7 -113.3)"/><path class="cls-1" d="M152.5,382.7H155v3.4a8.9,8.9,0,0,1,7.2-3.9,7.7,7.7,0,0,1,3.9,1.1,6.7,6.7,0,0,1,2.4,3.1,16.2,16.2,0,0,1,.7,5.6v9.8h-2.4v-9.1a22.5,22.5,0,0,0-.3-4.6,5.4,5.4,0,0,0-1-2,4,4,0,0,0-1.6-1.2,5.2,5.2,0,0,0-2.3-.5,6.4,6.4,0,0,0-2.7.7,7.1,7.1,0,0,0-2.3,1.9,7.5,7.5,0,0,0-1.3,2.5,30,30,0,0,0-.3,5.3v7h-2.5Z" transform="translate(-109.7 -113.3)"/><path class="cls-1" d="M193.2,386.6l-2,1.3a8.7,8.7,0,0,0-12.7-1.2,7.5,7.5,0,0,0-2.3,5.5,7.3,7.3,0,0,0,2.3,5.6,7.7,7.7,0,0,0,5.8,2.4,8.3,8.3,0,0,0,6.9-3.4l2,1.3a9.4,9.4,0,0,1-3.9,3.2,11.6,11.6,0,0,1-5.2,1.1,9.7,9.7,0,0,1-7.4-2.9,9.4,9.4,0,0,1-3-7.1,9.8,9.8,0,0,1,3-7.2,10.5,10.5,0,0,1,7.7-3,10.7,10.7,0,0,1,5.1,1.2A8.3,8.3,0,0,1,193.2,386.6Z" transform="translate(-109.7 -113.3)"/><path class="cls-1" d="M216.8,382.7v19.1h-2.4v-3.3q-3.3,3.9-7.5,3.9a9.4,9.4,0,0,1-7.1-3,10.3,10.3,0,0,1,0-14.3,9.8,9.8,0,0,1,7-2.9,8.9,8.9,0,0,1,7.6,4v-3.5Zm-2.3,9.6a7.7,7.7,0,0,0-2.1-5.5,7.4,7.4,0,0,0-5.4-2.3,7,7,0,0,0-5.4,2.4,7.9,7.9,0,0,0,0,10.9,7.1,7.1,0,0,0,5.4,2.4,7.4,7.4,0,0,0,5.3-2.3A7.5,7.5,0,0,0,214.5,392.3Z" transform="translate(-109.7 -113.3)"/><path class="cls-1" d="M232,384.8l-1.6,1.6a5.5,5.5,0,0,0-3.9-1.9,2.7,2.7,0,0,0-2,.7,2.6,2.6,0,0,0-.8,2,2.4,2.4,0,0,0,.8,1.9,14.3,14.3,0,0,0,3.1,1.9,12.9,12.9,0,0,1,3.3,2.5,5,5,0,0,1,1.1,3.2,5.3,5.3,0,0,1-1.7,4.1,5.6,5.6,0,0,1-4.1,1.6,6.7,6.7,0,0,1-3.1-.7,6.9,6.9,0,0,1-2.5-2l1.5-1.7a5.5,5.5,0,0,0,4,2.1,3.3,3.3,0,0,0,2.5-1,3,3,0,0,0,1.1-2.3,2.7,2.7,0,0,0-.9-2.1,15.5,15.5,0,0,0-3.1-1.9,12.6,12.6,0,0,1-3.2-2.4,5.2,5.2,0,0,1-1.1-3.3,4.7,4.7,0,0,1,1.5-3.5,5.3,5.3,0,0,1,4-1.4C228.5,382.2,230.2,383,232,384.8Z" transform="translate(-109.7 -113.3)"/><path class="cls-1" d="M236.3,375.3h2.5v10.8a8.9,8.9,0,0,1,7.2-3.9,7.7,7.7,0,0,1,3.9,1.1,6.7,6.7,0,0,1,2.4,3.1,16.2,16.2,0,0,1,.7,5.6v9.8h-2.5v-9.1c0-2,0-3.3-.1-4.1a9,9,0,0,0-.8-2.1,3.5,3.5,0,0,0-1.7-1.5,4.5,4.5,0,0,0-2.4-.6,6.8,6.8,0,0,0-2.8.7,7.1,7.1,0,0,0-2.3,1.9,10,10,0,0,0-1.3,2.5,30,30,0,0,0-.3,5.3v7h-2.5Z" transform="translate(-109.7 -113.3)"/><path class="cls-1" d="M265,397l2.2-1.3c1.6,2.8,3.3,4.2,5.4,4.2a5.2,5.2,0,0,0,3.4-1.2,4.3,4.3,0,0,0,1.4-3.2,4.8,4.8,0,0,0-1.2-3,18.6,18.6,0,0,0-4-3.5c-1.8-1.4-3-2.5-3.7-3.1a9,9,0,0,1-1.4-2.2,6.7,6.7,0,0,1-.4-2.4,5.8,5.8,0,0,1,1.8-4.3,6,6,0,0,1,4.4-1.7,5.6,5.6,0,0,1,3.7,1.1,11.4,11.4,0,0,1,3.1,3.1l-2.1,1.6a11.1,11.1,0,0,0-2.1-2.2,3.9,3.9,0,0,0-2.6-.9,3.7,3.7,0,0,0-2.6.9,3.3,3.3,0,0,0-1,2.4,3.8,3.8,0,0,0,.9,2.5,25.1,25.1,0,0,0,4,3.3,24.6,24.6,0,0,1,4.6,4.3,7,7,0,0,1,1.4,4.1,6.8,6.8,0,0,1-2.2,4.9,7.4,7.4,0,0,1-5.1,2C269.6,402.4,266.9,400.6,265,397Z" transform="translate(-109.7 -113.3)"/><path class="cls-1" d="M301.3,395.6l2.1,1.1c-2.1,3.8-5.1,5.7-9.1,5.7a9.8,9.8,0,0,1-7.2-2.9,10.5,10.5,0,0,1-2.8-7.2,10.1,10.1,0,0,1,2.8-7.1,9.4,9.4,0,0,1,7-3,9.7,9.7,0,0,1,7,2.7,10.3,10.3,0,0,1,2.9,7.6H286.8a8.1,8.1,0,0,0,2.2,5.6,6.9,6.9,0,0,0,5,2.1A7.8,7.8,0,0,0,301.3,395.6Zm0-5.2a6.7,6.7,0,0,0-2.5-4.3,7.8,7.8,0,0,0-4.7-1.6c-3.6,0-5.9,2-7,5.9Z" transform="translate(-109.7 -113.3)"/><path class="cls-1" d="M307.7,382.7h2.5v2.7a8.4,8.4,0,0,1,2-2.4,2.8,2.8,0,0,1,2.1-.8,4.9,4.9,0,0,1,2.3.6l-1.3,2.1a2,2,0,0,0-1.1-.3,3.1,3.1,0,0,0-2.1,1.1,8.3,8.3,0,0,0-1.4,3,30.9,30.9,0,0,0-.5,6.6v6.5h-2.5Z" transform="translate(-109.7 -113.3)"/><path class="cls-1" d="M317.6,382.7h2.7l6.3,14.5,6.4-14.5h2.6l-8.7,19.7h-.4Z" transform="translate(-109.7 -113.3)"/><path class="cls-1" d="M338.2,377.3a2,2,0,0,1,.6-1.4,2,2,0,0,1,1.5-.6,2.1,2.1,0,0,1,2,2,2,2,0,0,1-.6,1.5,2,2,0,0,1-1.4.6,2.2,2.2,0,0,1-2.1-2.1Zm.8,5.4h2.5v19.1H339Z" transform="translate(-109.7 -113.3)"/><path class="cls-1" d="M365.3,386.6l-2,1.3a8,8,0,0,0-6.9-3.4,8.1,8.1,0,0,0-5.8,2.2,7.5,7.5,0,0,0-2.3,5.5,8,8,0,0,0,8.1,8,8.3,8.3,0,0,0,6.9-3.4l2,1.3a9.4,9.4,0,0,1-3.9,3.2,11.6,11.6,0,0,1-5.2,1.1,9.9,9.9,0,0,1-7.4-2.9,9.4,9.4,0,0,1-3-7.1,9.8,9.8,0,0,1,3-7.2,10.5,10.5,0,0,1,7.7-3,11.4,11.4,0,0,1,5.2,1.2A8.6,8.6,0,0,1,365.3,386.6Z" transform="translate(-109.7 -113.3)"/><path class="cls-1" d="M386,395.6l2.1,1.1c-2.1,3.8-5.1,5.7-9.2,5.7a9.6,9.6,0,0,1-7.1-2.9,10,10,0,0,1-2.8-7.2,9.6,9.6,0,0,1,2.8-7.1,9.2,9.2,0,0,1,7-3,9.7,9.7,0,0,1,7,2.7,10.7,10.7,0,0,1,2.9,7.6H371.5a8.1,8.1,0,0,0,2.2,5.6,6.7,6.7,0,0,0,5,2.1A8,8,0,0,0,386,395.6Zm0-5.2a7.2,7.2,0,0,0-2.5-4.3,7.8,7.8,0,0,0-4.7-1.6c-3.6,0-5.9,2-7,5.9Z" transform="translate(-109.7 -113.3)"/><path class="cls-1" d="M402.9,384.8l-1.6,1.6a5.5,5.5,0,0,0-3.8-1.9,2.6,2.6,0,0,0-2.9,2.7,2.5,2.5,0,0,0,.9,1.9,15.8,15.8,0,0,0,3,1.9,12.9,12.9,0,0,1,3.3,2.5,4.5,4.5,0,0,1,1.1,3.2,5.6,5.6,0,0,1-1.6,4.1,5.8,5.8,0,0,1-4.2,1.6,7.1,7.1,0,0,1-5.6-2.7L393,398a5.5,5.5,0,0,0,4,2.1,3.2,3.2,0,0,0,2.5-1,3,3,0,0,0,1.1-2.3,2.7,2.7,0,0,0-.9-2.1,13,13,0,0,0-3.1-1.9,12.6,12.6,0,0,1-3.2-2.4,5.2,5.2,0,0,1-1.1-3.3,4.7,4.7,0,0,1,1.5-3.5,5.4,5.4,0,0,1,4-1.4C399.4,382.2,401.1,383,402.9,384.8Z" transform="translate(-109.7 -113.3)"/><path class="cls-2" d="M356.4,223.1c0-44.4-30.9-83.1-75.1-94.2a8.1,8.1,0,0,0-9.7,5.6,7.6,7.6,0,0,0,5.7,9.3c37.3,9.3,63.2,41.9,63.2,79.3,0,32.9-20.1,62.1-50.4,74.9l7.3-16.5a7.6,7.6,0,0,0-4.1-10.1,8,8,0,0,0-10.4,4l-14.2,32.3a7.7,7.7,0,0,0,4.1,10.1L306,331.6a8.3,8.3,0,0,0,10.4-4,7.6,7.6,0,0,0-4.1-10.1l-14.5-6c35.2-15.5,58.6-49.8,58.6-88.4Z" transform="translate(-109.7 -113.3)"/><path class="cls-3" d="M235.3,302.3c-37.2-9.3-63.2-41.9-63.2-79.2,0-32.5,19.7-61.4,49.2-74.4l-6.9,15.4a7.5,7.5,0,0,0,4.2,10.1c4.8,1.8,8.8-.3,10.4-4l14.2-32.3c1.4-3.1,1.4-7.8-4.1-10.1l-33.2-13.9a8.1,8.1,0,0,0-10.4,4.1,7.7,7.7,0,0,0,4.1,10.1l15.5,6.4c-35.3,15.5-58.8,49.9-58.8,88.6,0,44.3,30.9,83,75.1,94.1a7.7,7.7,0,1,0,3.9-14.9Z" transform="translate(-109.7 -113.3)"/><path class="cls-4" d="M264.2,209.3c-6.2-3.6-16.3-3.6-22.5,0s-6.2,9.4.1,13,16.3,3.6,22.5,0S270.5,212.9,264.2,209.3Zm-2.8,5.6-1.6.5c-.4.1-.6.2-.7.1s-.2-.1-.2-.3a4.9,4.9,0,0,0-1.7-1.4c0-.1-.2-.1-.3-.2l-.7-.3c-1.1-.2-2,.2-1.8.8a1.8,1.8,0,0,0,.4.9,10.1,10.1,0,0,1,1,1.6c.9,1.8-1,3.5-4,3.6a6.5,6.5,0,0,1-3.1-.4,1.1,1.1,0,0,0-1,.1l-1,.6a.7.7,0,0,1-.9,0l-.7-.3-.4-.3c-.3-.2-.3-.4,0-.5l.7-.5c.5-.3.5-.3.1-.6a4.9,4.9,0,0,1-1.4-1.5c-.2-.4-.2-.5.5-.7l1.4-.4c.4-.1.6-.2.7-.1s.2.1.2.3a5.6,5.6,0,0,0,1.5,1.6l.4.2a3.3,3.3,0,0,0,1.2.5c1.2.2,2.3-.2,2.2-1a2.5,2.5,0,0,0-.4-.7,18.8,18.8,0,0,1-1.2-1.8c-.4-1.1-.2-2,1.2-2.7a6.9,6.9,0,0,1,5.3-.4c.8.2.8.2,1.4-.1l.6-.4a1.1,1.1,0,0,1,1.1,0l.4.3c1,.5,1,.5.1,1.1s-.7.4-.1.8l1,1.2C261.8,214.7,261.7,214.8,261.4,214.9ZM272.5,227a6.8,6.8,0,0,1-6.2,0c-1.7-1-1.7-2.6,0-3.6a6.8,6.8,0,0,1,6.2,0C274.3,224.4,274.3,226,272.5,227Zm-32.8-18.9a6.8,6.8,0,0,1-6.2,0c-1.8-1-1.8-2.6-.1-3.6a7,7,0,0,1,6.3,0C241.4,205.5,241.4,207.1,239.7,208.1Zm56.2,11.2L246.7,191a11.7,11.7,0,0,0-10.3,0l-26.3,15.3c-2.9,1.6-2.8,4.3,0,5.9l49.2,28.3a11.7,11.7,0,0,0,10.3,0l26.3-15.2C298.7,223.6,298.7,221,295.9,219.3Zm-25.8,15.8-1.1-.8a11.2,11.2,0,0,0-10.4,0l-.7.4-38.1-22,1-.4c2.9-1.7,2.9-4.4,0-6l-1-.5,15.7-9.1a2.6,2.6,0,0,0,.9.5,11.2,11.2,0,0,0,10.4,0,1.6,1.6,0,0,0,.8-.6l38.3,22-1.4.7c-2.8,1.6-2.8,4.3.1,6a3.5,3.5,0,0,0,1.4.6Zm-61.3-17.2a5.2,5.2,0,0,1,4.4.1l51.4,29.6,27.8-16.1a4.9,4.9,0,0,1,4.4,0,1.3,1.3,0,0,1,0,2.5l-29.5,17.1a5.5,5.5,0,0,1-5.3,0l-1-.6-.7-.4-51.6-29.6C207.5,219.8,207.5,218.6,208.8,217.9Zm88,25.4-29.5,17.1a6.2,6.2,0,0,1-5.3,0l-1-.6-.7-.5-51.5-29.6c-1.3-.7-1.3-1.9.1-2.6a5.2,5.2,0,0,1,4.4.2l51.3,29.5,27.8-16a4.9,4.9,0,0,1,4.4,0C298,241.4,298.1,242.6,296.8,243.3Z" transform="translate(-109.7 -113.3)"/></svg>