<svg id="Layer_1" data-name="Layer 1" xmlns="http://www.w3.org/2000/svg" viewBox="0 0 512 512"><defs><style>.cls-1{fill:#f2b851;}.cls-2{fill:#fff;}</style></defs><title>client-3</title><circle class="cls-1" cx="256" cy="256" r="256"/><path class="cls-2" d="M325.1,221.1a93.3,93.3,0,0,1,16.6-1.2c7.6,0,13,1.5,16.6,4.4a15.6,15.6,0,0,1,5.8,12.5,17.3,17.3,0,0,1-5,12.8c-4.2,3.9-10.4,5.7-17.6,5.7a25,25,0,0,1-4.2-.3v19.4H325.1Zm12.2,24.5a21.5,21.5,0,0,0,4.1.3c6.5,0,10.6-3.3,10.6-8.8s-3.5-7.9-9.6-7.9a25.5,25.5,0,0,0-5.1.4v16Z"/><path class="cls-2" d="M392.5,274.4l-.8-4h-.2c-2.6,3.2-6.6,4.8-11.3,4.8-8,0-12.7-5.7-12.7-12,0-10.2,9.2-15,23.1-15v-.5c0-2.1-1.1-5.1-7.1-5.1a22.2,22.2,0,0,0-10.9,3l-2.3-7.9a33.5,33.5,0,0,1,15.3-3.4c13.2,0,17.4,7.7,17.4,16.9v13.6a62.9,62.9,0,0,0,.5,9.6ZM391,255.8c-6.4,0-11.4,1.5-11.4,6.2,0,3.1,2.1,4.7,4.8,4.7a6.7,6.7,0,0,0,6.4-4.5,14.9,14.9,0,0,0,.2-2.1Z"/><path class="cls-2" d="M420.8,235.2l5.9,19.2c.7,2.3,1.5,5.2,1.9,7.3h.3c.5-2.1,1.2-5,1.8-7.3l4.8-19.2h13.1L439.4,261c-5.6,15.5-9.4,21.8-13.8,25.7a22.7,22.7,0,0,1-11.9,5.4l-2.6-10.4a13.7,13.7,0,0,0,5.4-2.1,13.5,13.5,0,0,0,5-4.8,3.4,3.4,0,0,0,.7-1.8,4.5,4.5,0,0,0-.6-2l-14.4-35.8Z"/><path d="M90.7,266l-9.8-39v42.3a7.7,7.7,0,0,1-1.6,5.2,5.1,5.1,0,0,1-4.1,1.8,5.3,5.3,0,0,1-4.1-1.7,7.6,7.6,0,0,1-1.6-5.3V220.8c0-2.6.7-4.5,2.1-5.4a10.1,10.1,0,0,1,5.6-1.4H81a16,16,0,0,1,5.1.6,4.7,4.7,0,0,1,2.3,2.3,48.5,48.5,0,0,1,1.7,5.3l8.8,33.5,8.9-33.5a48.5,48.5,0,0,1,1.7-5.3,4.7,4.7,0,0,1,2.3-2.3,16,16,0,0,1,5.1-.6h3.8a10.1,10.1,0,0,1,5.6,1.4c1.4.9,2.1,2.8,2.1,5.4v48.5c0,2.3-.5,4.1-1.6,5.2a5.1,5.1,0,0,1-4.1,1.8,5.2,5.2,0,0,1-4.1-1.8,7.7,7.7,0,0,1-1.6-5.2V227l-9.8,39c-.6,2.5-1.1,4.4-1.5,5.6a7.7,7.7,0,0,1-2.3,3.2,7.3,7.3,0,0,1-8.1.5,6.9,6.9,0,0,1-2.4-2.4,19.3,19.3,0,0,1-1.3-3.2Z"/><path d="M182.9,253.1a26.1,26.1,0,0,1-1.6,9.4,20.2,20.2,0,0,1-11.7,12.1,25.4,25.4,0,0,1-9.4,1.7,24.5,24.5,0,0,1-9.3-1.7,19.4,19.4,0,0,1-7.1-4.8,18.5,18.5,0,0,1-4.6-7.3,25.8,25.8,0,0,1-1.6-9.4,26.7,26.7,0,0,1,1.6-9.5,20.9,20.9,0,0,1,4.5-7.3,19.6,19.6,0,0,1,7.2-4.7,25.2,25.2,0,0,1,9.3-1.7,25.8,25.8,0,0,1,9.4,1.7,19.8,19.8,0,0,1,7.2,4.8,19.5,19.5,0,0,1,4.5,7.3A25.8,25.8,0,0,1,182.9,253.1Zm-11.4,0c0-4.6-1-8.3-3.1-10.9a10.9,10.9,0,0,0-14.1-2.1,11.3,11.3,0,0,0-3.9,5.1,21.4,21.4,0,0,0-1.4,7.9,20.5,20.5,0,0,0,1.4,7.8,11.3,11.3,0,0,0,3.9,5.1,9.6,9.6,0,0,0,5.9,1.8,9.9,9.9,0,0,0,8.2-3.9C170.5,261.3,171.5,257.7,171.5,253.1Z"/><path d="M229.7,253.9v15.2a8.3,8.3,0,0,1-1.6,5.4,5.7,5.7,0,0,1-4.3,1.8,5.2,5.2,0,0,1-4.2-1.8c-1.1-1.2-1.6-3-1.6-5.4V250.9a55.1,55.1,0,0,0-.3-6.6,7.6,7.6,0,0,0-1.6-4,5.1,5.1,0,0,0-4.1-1.5c-3.7,0-6.2,1.3-7.3,3.9s-1.8,6.2-1.8,11v15.4c0,2.4-.5,4.2-1.6,5.4a5.4,5.4,0,0,1-4.2,1.8,5.5,5.5,0,0,1-4.3-1.8c-1.1-1.2-1.6-3-1.6-5.4V236.5a7,7,0,0,1,1.5-4.9,4.8,4.8,0,0,1,3.9-1.7,5.7,5.7,0,0,1,3.9,1.6,5.9,5.9,0,0,1,1.5,4.3v1.1a19.8,19.8,0,0,1,6.3-5.2,17.2,17.2,0,0,1,7.5-1.7,15.3,15.3,0,0,1,7.4,1.7,13.4,13.4,0,0,1,5.1,5.2,19.8,19.8,0,0,1,6.2-5.2,16,16,0,0,1,7.3-1.7,16.9,16.9,0,0,1,8,1.8,12.2,12.2,0,0,1,5,5.3c1,2.1,1.5,5.3,1.5,9.7v22.3c0,2.4-.5,4.2-1.6,5.4a5.5,5.5,0,0,1-4.3,1.8,5.4,5.4,0,0,1-4.2-1.8,7.8,7.8,0,0,1-1.7-5.4V249.9a46.8,46.8,0,0,0-.3-5.9,7,7,0,0,0-1.7-3.7,5.4,5.4,0,0,0-4.2-1.5,7.3,7.3,0,0,0-4.2,1.4,8.6,8.6,0,0,0-3.2,3.6C230.1,245.7,229.7,249.1,229.7,253.9Z"/><path d="M309.9,253.1a26.1,26.1,0,0,1-1.6,9.4,20.1,20.1,0,0,1-4.6,7.4,19.2,19.2,0,0,1-7.1,4.7,26.6,26.6,0,0,1-18.7,0,20.3,20.3,0,0,1-7.1-4.8,19.7,19.7,0,0,1-4.6-7.3,25.8,25.8,0,0,1-1.6-9.4,29.1,29.1,0,0,1,1.6-9.5,21.1,21.1,0,0,1,4.6-7.3,18.4,18.4,0,0,1,7.1-4.7,26.6,26.6,0,0,1,18.7,0,19.8,19.8,0,0,1,7.2,4.8,21.1,21.1,0,0,1,4.6,7.3A28.1,28.1,0,0,1,309.9,253.1Zm-11.4,0c0-4.6-1-8.3-3.1-10.9a10.9,10.9,0,0,0-14.1-2.1,11.3,11.3,0,0,0-3.9,5.1,21.4,21.4,0,0,0-1.4,7.9,20.5,20.5,0,0,0,1.4,7.8,11.3,11.3,0,0,0,3.9,5.1,10.6,10.6,0,0,0,14.1-2.1C297.5,261.3,298.5,257.7,298.5,253.1Z"/></svg>